<svg width="39" height="39" viewBox="0 0 39 39" fill="none" xmlns="http://www.w3.org/2000/svg">
<path d="M33.7403 20.3265C34.3802 19.481 34.7344 18.445 34.7344 17.3672C34.7344 15.6571 33.7784 14.0385 32.2397 13.1358C31.8436 12.9035 31.3926 12.7812 30.9334 12.7816H21.8004L22.0289 8.10089C22.0822 6.96973 21.6823 5.89571 20.9054 5.07686C20.5241 4.67326 20.0641 4.35214 19.5538 4.13334C19.0435 3.91455 18.4937 3.80273 17.9385 3.80479C15.958 3.80479 14.2061 5.1378 13.6805 7.04591L10.4089 18.8906H5.48438C4.81025 18.8906 4.26562 19.4353 4.26562 20.1094V33.9727C4.26562 34.6468 4.81025 35.1914 5.48438 35.1914H28.3854C28.7358 35.1914 29.0786 35.1229 29.3947 34.9857C31.2076 34.2126 32.3769 32.4416 32.3769 30.4764C32.3769 29.9965 32.3083 29.5242 32.1712 29.0672C32.811 28.2217 33.1652 27.1857 33.1652 26.1079C33.1652 25.628 33.0967 25.1558 32.9596 24.6987C33.5994 23.8532 33.9536 22.8173 33.9536 21.7395C33.946 21.2596 33.8774 20.7835 33.7403 20.3265ZM7.00781 32.4492V21.6328H10.0928V32.4492H7.00781ZM31.2457 19.0049L30.4116 19.7285L30.941 20.6959C31.1154 21.0146 31.2059 21.3724 31.2038 21.7357C31.2038 22.3641 30.9296 22.962 30.4573 23.3733L29.6232 24.097L30.1526 25.0644C30.327 25.383 30.4175 25.7408 30.4154 26.1041C30.4154 26.7325 30.1412 27.3305 29.6689 27.7418L28.8349 28.4654L29.3643 29.4328C29.5387 29.7515 29.6291 30.1093 29.6271 30.4726C29.6271 31.3257 29.1243 32.095 28.3474 32.4454H12.5303V21.5109L16.3198 7.78096C16.4175 7.42905 16.6273 7.11858 16.9173 6.89659C17.2074 6.67461 17.5618 6.55321 17.9271 6.55079C18.2165 6.55079 18.5021 6.63458 18.7307 6.80596C19.1077 7.0878 19.3096 7.51436 19.2867 7.96758L18.9211 15.5238H30.8953C31.5732 15.939 31.9922 16.6398 31.9922 17.3672C31.9922 17.9956 31.718 18.5898 31.2457 19.0049Z" fill="#D875A3"/>
</svg>
