<svg width="41" height="41" viewBox="0 0 41 41" fill="none" xmlns="http://www.w3.org/2000/svg">
<path d="M37.0281 25.0524L34.4056 22.8102C34.5297 22.0495 34.5937 21.2727 34.5937 20.496C34.5937 19.7192 34.5297 18.9425 34.4056 18.1817L37.0281 15.9395C37.2259 15.7702 37.3675 15.5447 37.434 15.2929C37.5005 15.0412 37.4888 14.7751 37.4005 14.5302L37.3644 14.4261C36.6425 12.4082 35.5613 10.5376 34.1733 8.90468L34.1013 8.8206C33.9329 8.62261 33.7085 8.48029 33.4576 8.41239C33.2067 8.34449 32.9411 8.3542 32.6959 8.44023L29.4407 9.59736C28.2395 8.6124 26.8982 7.83564 25.4488 7.29111L24.8202 3.88779C24.7728 3.63171 24.6486 3.39612 24.464 3.21232C24.2795 3.02852 24.0435 2.90522 23.7872 2.85878L23.6791 2.83876C21.5931 2.4624 19.3989 2.4624 17.3129 2.83876L17.2048 2.85878C16.9485 2.90522 16.7124 3.02852 16.5279 3.21232C16.3434 3.39612 16.2192 3.63171 16.1718 3.88779L15.5392 7.30712C14.1013 7.85177 12.7623 8.62811 11.5753 9.60536L8.29608 8.44023C8.05091 8.35351 7.78515 8.34346 7.53412 8.4114C7.28309 8.47934 7.05868 8.62206 6.89071 8.8206L6.81864 8.90468C5.43227 10.5388 4.35134 12.409 3.62753 14.4261L3.59149 14.5302C3.41132 15.0307 3.55946 15.5912 3.96386 15.9395L6.61845 18.2058C6.49433 18.9585 6.43427 19.7272 6.43427 20.492C6.43427 21.2607 6.49433 22.0295 6.61845 22.7782L3.96386 25.0444C3.76605 25.2138 3.62447 25.4393 3.55796 25.6911C3.49144 25.9428 3.50314 26.2089 3.59149 26.4538L3.62753 26.5579C4.35224 28.5759 5.42528 30.4377 6.81864 32.0793L6.89071 32.1634C7.05909 32.3614 7.28351 32.5037 7.53439 32.5716C7.78527 32.6395 8.05083 32.6298 8.29608 32.5437L11.5753 31.3786C12.7684 32.3596 14.1017 33.1363 15.5392 33.6768L16.1718 37.0962C16.2192 37.3523 16.3434 37.5879 16.5279 37.7717C16.7124 37.9555 16.9485 38.0788 17.2048 38.1252L17.3129 38.1452C19.4181 38.5236 21.5739 38.5236 23.6791 38.1452L23.7872 38.1252C24.0435 38.0788 24.2795 37.9555 24.464 37.7717C24.6486 37.5879 24.7728 37.3523 24.8202 37.0962L25.4488 33.6929C26.8976 33.1498 28.2465 32.3705 29.4407 31.3866L32.6959 32.5437C32.9411 32.6305 33.2068 32.6405 33.4579 32.5726C33.7089 32.5046 33.9333 32.3619 34.1013 32.1634L34.1733 32.0793C35.5667 30.4337 36.6397 28.5759 37.3644 26.5579L37.4005 26.4538C37.5807 25.9613 37.4325 25.4008 37.0281 25.0524ZM31.5628 18.6542C31.6629 19.2588 31.7149 19.8794 31.7149 20.5C31.7149 21.1206 31.6629 21.7412 31.5628 22.3458L31.2985 23.9514L34.2894 26.5099C33.836 27.5544 33.2637 28.5433 32.5838 29.4567L28.8682 28.1394L27.6109 29.1725C26.654 29.9572 25.589 30.5738 24.4358 31.0062L22.9103 31.5788L22.1936 35.4626C21.0628 35.5907 19.9211 35.5907 18.7903 35.4626L18.0736 31.5708L16.5601 30.9902C15.419 30.5578 14.358 29.9412 13.4091 29.1604L12.1518 28.1234L8.4122 29.4527C7.73153 28.5358 7.16298 27.5469 6.70653 26.5059L9.72948 23.9233L9.46923 22.3218C9.37313 21.7252 9.32108 21.1086 9.32108 20.5C9.32108 19.8874 9.36913 19.2748 9.46923 18.6782L9.72948 17.0767L6.70653 14.4941C7.15897 13.4491 7.73153 12.4642 8.4122 11.5473L12.1518 12.8766L13.4091 11.8395C14.358 11.0588 15.419 10.4422 16.5601 10.0098L18.0776 9.4372L18.7943 5.5454C19.9194 5.41728 21.0685 5.41728 22.1976 5.5454L22.9143 9.42919L24.4398 10.0018C25.589 10.4342 26.658 11.0508 27.6149 11.8355L28.8722 12.8685L32.5878 11.5513C33.2684 12.4682 33.837 13.4571 34.2934 14.4981L31.3025 17.0566L31.5628 18.6542ZM20.5 13.0527C16.6082 13.0527 13.4531 16.2078 13.4531 20.0996C13.4531 23.9914 16.6082 27.1465 20.5 27.1465C24.3918 27.1465 27.5469 23.9914 27.5469 20.0996C27.5469 16.2078 24.3918 13.0527 20.5 13.0527ZM23.6711 23.2707C23.2552 23.6878 22.7609 24.0186 22.2167 24.244C21.6724 24.4693 21.089 24.5849 20.5 24.584C19.3028 24.584 18.1777 24.1155 17.3289 23.2707C16.9118 22.8548 16.581 22.3605 16.3556 21.8163C16.1303 21.2721 16.0147 20.6886 16.0156 20.0996C16.0156 18.9024 16.4841 17.7773 17.3289 16.9285C18.1777 16.0797 19.3028 15.6152 20.5 15.6152C21.6972 15.6152 22.8223 16.0797 23.6711 16.9285C24.0882 17.3444 24.419 17.8387 24.6443 18.3829C24.8697 18.9272 24.9853 19.5106 24.9844 20.0996C24.9844 21.2968 24.5159 22.4219 23.6711 23.2707Z" fill="#5961CC"/>
</svg>
