<svg width="83" height="83" viewBox="0 0 83 83" fill="none" xmlns="http://www.w3.org/2000/svg">
<path d="M51.875 44.0938L67.1522 44.0938C66.6701 47.3039 65.5239 50.3783 63.7866 53.1204C62.0493 55.8626 59.7592 58.2123 57.0625 60.0194L52.4197 63.1319L55.2728 67.4375L59.9156 64.325C63.8237 61.7207 67.0284 58.1919 69.2455 54.0519C71.4626 49.9118 72.6234 45.2885 72.625 40.5922L72.625 23.3438C72.625 21.9679 72.0785 20.6485 71.1056 19.6756C70.1328 18.7028 68.8133 18.1563 67.4375 18.1563L51.875 18.1563C50.4992 18.1563 49.1797 18.7028 48.2069 19.6756C47.234 20.6485 46.6875 21.9679 46.6875 23.3438L46.6875 38.9063C46.6875 40.2821 47.234 41.6015 48.2069 42.5744C49.1797 43.5472 50.4992 44.0938 51.875 44.0938ZM15.5625 44.0937L30.8397 44.0938C30.3576 47.3039 29.2114 50.3783 27.4741 53.1204C25.7368 55.8626 23.4467 58.2123 20.75 60.0194L16.1072 63.1319L18.9344 67.4375L23.6031 64.325C27.5112 61.7207 30.7159 58.1919 32.933 54.0519C35.1501 49.9118 36.3109 45.2885 36.3125 40.5922L36.3125 23.3438C36.3125 21.9679 35.766 20.6485 34.7931 19.6756C33.8203 18.7028 32.5008 18.1563 31.125 18.1563L15.5625 18.1563C14.1867 18.1563 12.8672 18.7028 11.8944 19.6756C10.9215 20.6485 10.375 21.9679 10.375 23.3438L10.375 38.9063C10.375 40.2821 10.9215 41.6015 11.8944 42.5744C12.8672 43.5472 14.1867 44.0937 15.5625 44.0937Z" fill="#606CFC"/>
</svg>
