<svg width="164" height="59" viewBox="0 0 164 59" fill="none" xmlns="http://www.w3.org/2000/svg">
<g clip-path="url(#clip0_8_37)">
<mask id="mask0_8_37" style="mask-type:luminance" maskUnits="userSpaceOnUse" x="0" y="0" width="164" height="59">
<path d="M164 0H0V58.5714H164V0Z" fill="white"/>
</mask>
<g mask="url(#mask0_8_37)">
<path d="M163.988 42.8598C163.988 42.8598 163.988 42.7316 163.918 42.6889H162.584V44.2985C159.441 41.7488 156.971 41.5635 154.627 43.6146C153.623 44.4939 152.957 45.706 152.749 47.0358C152.541 48.3656 152.804 49.7272 153.49 50.8792C153.939 51.6535 154.57 52.3023 155.327 52.7673C156.084 53.2323 156.943 53.4989 157.827 53.5428C158.73 53.5948 159.633 53.4371 160.467 53.0817C161.301 52.7263 162.045 52.1824 162.641 51.4916C162.619 52.1972 162.558 52.901 162.458 53.5997C162.425 54.0345 162.307 54.4583 162.112 54.8469C161.917 55.2355 161.648 55.5814 161.321 55.8646C160.368 56.588 159.186 56.9297 158.001 56.8246C156.815 56.7195 155.709 56.175 154.894 55.2948C154.7 55.0001 154.419 54.7753 154.091 54.6525C153.763 54.5297 153.406 54.5152 153.069 54.6111C153.283 55.3195 153.679 55.957 154.217 56.4579C154.755 56.9587 155.415 57.3047 156.129 57.4599C156.866 57.635 157.618 57.7399 158.374 57.7733C161.7 57.93 163.791 56.1352 163.918 52.7879C164.044 49.4405 163.974 46.1929 163.988 42.8598ZM158.374 52.5742C157.783 52.589 157.194 52.4817 156.645 52.2586C156.096 52.0355 155.597 51.7014 155.178 51.2765C154.76 50.8516 154.432 50.3449 154.212 49.7871C153.993 49.2292 153.888 48.632 153.903 48.0316C153.918 47.4312 154.054 46.8402 154.301 46.2946C154.548 45.7489 154.902 45.2599 155.341 44.8575C155.781 44.455 156.296 44.1474 156.856 43.9533C157.416 43.7592 158.009 43.6829 158.599 43.7287C159.157 43.7523 159.705 43.8883 160.21 44.1289C160.716 44.3695 161.169 44.7099 161.544 45.1301C161.919 45.5504 162.208 46.042 162.394 46.5766C162.579 47.1112 162.659 47.678 162.627 48.2439C162.634 48.8159 162.528 49.3837 162.316 49.9135C162.103 50.4433 161.788 50.9243 161.389 51.3282C160.99 51.732 160.515 52.0503 159.992 52.2643C159.469 52.4784 158.91 52.5837 158.346 52.5742H158.374Z" fill="#616AE8"/>
<path d="M148.954 43.1446C148.231 42.6065 147.359 42.3164 146.463 42.3164C145.567 42.3164 144.694 42.6065 143.972 43.1446C143.452 43.5434 142.975 44.0135 142.386 44.569V42.76H140.982V53.6282H142.245C142.245 53.1581 142.245 52.7592 142.245 52.3462C142.245 50.6084 142.245 48.8708 142.4 47.133C142.474 46.3209 142.803 45.5543 143.338 44.9465C143.874 44.3386 144.588 43.9217 145.375 43.7572C145.781 43.6409 146.208 43.6193 146.624 43.6939C147.04 43.7684 147.434 43.9373 147.777 44.1878C148.119 44.4384 148.402 44.7641 148.603 45.1409C148.804 45.5176 148.92 45.9356 148.94 46.3637C149.052 48.0873 148.94 49.8393 149.01 51.5771C149.01 52.2466 149.01 52.9159 149.01 53.6139H150.245C150.245 51.1212 150.329 48.6856 150.245 46.2499C150.276 45.6667 150.176 45.0841 149.952 44.546C149.728 44.008 149.387 43.5287 148.954 43.1446Z" fill="#616AE8"/>
<path d="M59.6002 28.9725C60.1396 27.8716 60.3385 26.6308 60.1707 25.4132C60.0029 24.1956 59.4762 23.0579 58.6599 22.1495C56.625 19.9132 54.4498 17.7624 52.4009 15.5831C47.9521 10.968 43.5314 6.32449 39.0266 1.75216C38.4749 1.18884 37.8188 0.741656 37.0963 0.436601C36.3738 0.131546 35.599 -0.0253906 34.8164 -0.0253906C34.0338 -0.0253906 33.259 0.131546 32.5365 0.436601C31.8139 0.741656 31.1579 1.18884 30.6062 1.75216C29.9747 2.35041 29.3712 2.96278 28.7678 3.58952C28.674 3.70741 28.5412 3.78694 28.3942 3.81312C28.2471 3.83931 28.0956 3.81036 27.9678 3.73192C26.838 3.18587 25.5661 3.02004 24.3369 3.25828C23.1077 3.49653 21.9854 4.1265 21.1334 5.05669C14.6778 11.495 8.26429 17.9903 1.85081 24.4571C1.23363 25.046 0.744891 25.7598 0.416154 26.5523C0.0874162 27.3447 -0.0739989 28.1982 -0.0577813 29.0578C-0.0906549 29.8844 0.0485232 30.7088 0.350798 31.477C0.653073 32.2452 1.11165 32.9401 1.69645 33.5162C7.97428 40.078 14.2568 46.6255 20.544 53.1588C21.4238 54.1273 22.5784 54.7942 23.8481 55.0673C25.1179 55.3403 26.4399 55.206 27.631 54.6828C27.7641 54.6508 27.9025 54.6496 28.0361 54.6792C28.1697 54.7088 28.2951 54.7684 28.4029 54.8538C29.0064 55.395 29.5536 56.0076 30.129 56.5774C30.6961 57.1939 31.3791 57.6888 32.1378 58.0328C32.8965 58.3767 33.7155 58.5629 34.5463 58.5801C35.3771 58.5974 36.2028 58.4454 36.9748 58.1333C37.7467 57.8211 38.4492 57.355 39.0406 56.7626C45.4541 50.3813 51.8255 43.9428 58.2389 37.5615C59.2398 36.5838 59.9033 35.3047 60.1308 33.9139C60.3584 32.5231 60.1379 31.0948 59.502 29.8413C59.4256 29.5495 59.4606 29.2391 59.6002 28.9725ZM31.9956 1.60958C33.1045 0.936945 34.408 0.673177 35.6863 0.862601C36.9646 1.05202 38.1394 1.68319 39.0125 2.64954C43.5876 7.45452 48.1673 12.2405 52.7517 17.0075C54.506 18.8307 56.2742 20.6254 57.9723 22.4771C58.7181 23.2367 59.2274 24.2019 59.437 25.2529C59.6466 26.3039 59.5472 27.3943 59.1512 28.3884C59.1512 28.5166 59.0248 28.6447 59.0248 28.6732C58.253 27.961 57.453 27.2488 56.7233 26.5224C51.1097 20.6728 45.4962 14.8138 39.8826 8.94529C39.01 7.90486 37.8307 7.177 36.5191 6.86919C35.2074 6.56139 33.8331 6.69004 32.599 7.23607C32.4847 7.26992 32.3642 7.27591 32.2471 7.25363C32.1301 7.23136 32.0199 7.18133 31.9254 7.10775C30.9992 6.21038 30.1291 5.25603 29.1186 4.25895C30.0213 3.3148 30.9822 2.4299 31.9956 1.60958ZM32.7815 50.1106L48.6678 34.1145C49.31 33.5194 49.8242 32.7961 50.1781 31.9899C50.5321 31.1838 50.7181 30.3122 50.7247 29.4296C50.7313 28.547 50.5583 27.6726 50.2164 26.8611C49.8745 26.0496 49.3712 25.3184 48.738 24.7135C43.5454 19.2723 38.3483 13.8453 33.1464 8.43252C33.0201 8.29008 32.9078 8.13342 32.7394 7.91976C33.5893 7.42611 34.5759 7.23083 35.5462 7.36422C36.8842 7.53537 38.1232 8.1692 39.0547 9.15898C45.3793 15.8062 51.7038 22.4107 58.0284 28.9725C58.4354 29.3998 58.4354 29.7131 58.0284 30.1119L53.2148 34.9549C48.3684 39.7884 43.5221 44.6172 38.6757 49.4411C38.1969 49.9956 37.6139 50.4474 36.9609 50.7702C36.3078 51.0931 35.5978 51.2804 34.8725 51.3213C33.988 51.2835 33.1067 51.1884 32.2341 51.0365C32.2274 50.9274 32.2274 50.818 32.2341 50.7089C32.4025 50.5095 32.585 50.2957 32.7815 50.1106ZM31.6588 50.1106C31.5691 50.1973 31.4702 50.2738 31.364 50.3385C31.0132 50.0251 30.6483 49.726 30.3255 49.3841L11.6324 29.8841C11.1973 29.4283 11.057 29.1006 11.6324 28.5879C13.3305 26.9071 15.0006 25.1693 16.6987 23.4743C21.4702 18.6693 26.251 13.8784 31.0413 9.10195C31.336 8.80283 31.6869 8.53217 31.8693 8.37549C33.3709 9.79989 34.8164 11.0961 36.1777 12.4778C40.3037 16.732 44.4156 21.0052 48.5135 25.2974C49.0572 25.8094 49.4908 26.4299 49.7874 27.1198C50.084 27.8098 50.2371 28.5544 50.2371 29.3072C50.2371 30.0599 50.084 30.8046 49.7874 31.4946C49.4908 32.1845 49.0572 32.8048 48.5135 33.3168C42.8999 38.9859 37.2723 44.5554 31.6588 50.1533V50.1106ZM29.2169 5.4128C29.9747 6.21046 30.7746 6.9654 31.5605 7.73458L10.6781 28.5308C10.1247 27.6117 9.86299 26.5422 9.92826 25.4671C9.99352 24.392 10.3826 23.3631 11.043 22.5199C11.857 21.594 12.713 20.7394 13.5831 19.8705C18.3687 15.056 23.1823 10.2701 27.9538 5.45557C28.431 4.92854 28.7538 4.87152 29.2169 5.4128ZM21.6105 53.0447C19.0844 50.4808 16.6004 47.8742 14.1164 45.2818L2.65075 33.3311C2.03689 32.7962 1.54419 32.1329 1.20642 31.3868C0.868639 30.6406 0.693765 29.8291 0.693765 29.0079C0.693765 28.1868 0.868639 27.3755 1.20642 26.6293C1.54419 25.8831 2.03689 25.2199 2.65075 24.685C8.90051 18.3986 15.1409 12.1171 21.3719 5.84019C22.1172 5.01882 23.0838 4.43783 24.1517 4.1694C25.2196 3.90096 26.3416 3.95683 27.3784 4.33024C27.5054 4.38045 27.6276 4.44244 27.7433 4.51541L27.9538 4.77188C27.6876 4.88482 27.4375 5.03323 27.21 5.21336C21.8912 10.5264 16.6004 15.8537 11.2815 21.1525C10.3194 21.9961 9.63735 23.1205 9.32841 24.3722C9.01946 25.6239 9.09875 26.9419 9.5554 28.1462C9.85928 29.0708 9.85928 30.0705 9.5554 30.995C9.27422 32.0781 9.28752 33.2183 9.59394 34.2943C9.90037 35.3703 10.4885 36.3419 11.2956 37.1058C16.3759 42.3333 21.4281 47.6037 26.4943 52.8597C26.789 53.1589 27.0697 53.4721 27.3644 53.7855C26.4423 54.2711 25.3951 54.4565 24.3655 54.3163C23.3359 54.1761 22.3739 53.7173 21.6105 53.0021V53.0447ZM28.445 53.3297C27.0416 52.0193 25.7084 50.8655 24.4734 49.5835C20.2445 45.2249 16.0344 40.8472 11.8429 36.4506C11.0643 35.6917 10.5178 34.7209 10.2689 33.6548C10.02 32.5887 10.0793 31.4723 10.4395 30.4395C10.4395 30.4395 10.4395 30.3113 10.5378 30.2543L10.7062 30.1547L30.8588 50.9937C29.9747 51.8198 29.1187 52.646 28.445 53.2869V53.3297ZM57.8179 36.9063C51.3904 43.3066 44.9675 49.7022 38.5494 56.093C37.5445 57.1144 36.1905 57.7037 34.7688 57.7382C33.347 57.7727 31.9668 57.2497 30.915 56.2782C30.1712 55.6087 29.5115 54.8538 28.9923 54.398C29.8203 53.4152 30.508 52.5463 31.2518 51.7344C31.3502 51.6523 31.4664 51.5953 31.5909 51.568C31.7154 51.5407 31.8446 51.5441 31.9676 51.5777C33.1683 52.0992 34.4981 52.2326 35.7762 51.9599C37.0542 51.6872 38.2185 51.0215 39.1108 50.0535L57.8881 31.2515L58.8424 30.2543C59.3802 31.1307 59.6262 32.1595 59.5441 33.1886C59.4633 34.5953 58.8438 35.9142 57.8179 36.8635V36.9063Z" fill="#616AE8"/>
<path d="M102.28 26.8783C101.47 27.7333 100.501 28.4176 99.4292 28.8918C98.3575 29.366 97.2041 29.6208 96.0352 29.6417C94.6122 29.736 93.1915 29.426 91.9323 28.7468C90.6731 28.0675 89.6251 27.0458 88.906 25.7959C88.3219 24.7976 87.9528 23.6849 87.8231 22.5313C87.6933 21.3778 87.8059 20.2094 88.1533 19.1032C88.5006 17.997 89.075 16.9781 89.8385 16.1135C90.6021 15.2489 91.5373 14.5582 92.5829 14.0872C94.2163 13.4625 95.9928 13.3305 97.6984 13.7071C99.404 14.0836 100.966 14.9527 102.196 16.2095C102.382 16.4559 102.546 16.7181 102.687 16.993L105.62 13.7453C101.593 8.14743 92.8355 7.5777 87.1658 12.7055C85.9915 13.8662 85.0546 15.251 84.4089 16.7802C83.7632 18.3094 83.4214 19.953 83.4031 21.6166C83.3849 23.2802 83.6905 24.9309 84.3025 26.4744C84.9145 28.0178 85.8207 29.4232 86.9693 30.6102C91.7128 35.3819 100.582 35.3251 105.705 29.3569L102.898 26.3229L102.28 26.8783Z" fill="#616AE8"/>
<path d="M76.457 21.1525C74.7028 19.5144 72.8925 17.9476 71.1242 16.3237C70.8583 16.0962 70.6698 15.7893 70.5854 15.4469C70.501 15.1044 70.5249 14.7438 70.6538 14.416C70.7827 14.0881 71.0099 13.8096 71.3035 13.6203C71.597 13.4309 71.9418 13.3401 72.289 13.3609C72.9485 13.3922 73.592 13.5774 74.1695 13.9021C74.8661 14.4411 75.5185 15.0366 76.1202 15.6826L79.2779 12.8338C77.243 10.2129 74.8712 8.56076 71.461 9.04506C70.4272 9.16635 69.4432 9.56197 68.6079 10.1921C67.7727 10.8223 67.1159 11.6646 66.7036 12.6344C66.2931 13.5703 66.1593 14.6071 66.3188 15.6187C66.4783 16.6302 66.924 17.5729 67.6017 18.332C68.9531 19.8369 70.3869 21.2636 71.896 22.6052C72.8082 23.4884 73.8608 24.2291 74.7028 25.1692C75.0481 25.4706 75.2957 25.8709 75.413 26.3175C75.5303 26.7641 75.5119 27.2364 75.3601 27.6722C75.2084 28.108 74.9304 28.4871 74.5627 28.7598C74.195 29.0325 73.7546 29.1859 73.2994 29.2002C72.576 29.3145 71.8355 29.2027 71.1762 28.8796C70.5169 28.5565 69.9701 28.0375 69.6085 27.3914C69.3278 27.021 69.0753 26.6078 68.7946 26.1947L65.1738 28.4169C65.8651 30.2438 67.1822 31.7564 68.8835 32.6774C70.5848 33.5984 72.5563 33.8659 74.4362 33.4308C75.9639 33.1627 77.3389 32.3273 78.2934 31.0873C79.248 29.8473 79.7139 28.2912 79.6006 26.7218C79.3156 24.5178 78.1861 22.5168 76.457 21.1525Z" fill="#616AE8"/>
<path d="M116.594 33.2878C116.791 33.2878 117.001 33.2878 117.296 33.2878V13.9588H121.408V9.68555H108.777C108.777 10.9248 108.777 12.0928 108.777 13.2751C108.777 13.8448 108.932 14.0443 109.507 14.0158C110.616 14.0158 111.724 14.0158 112.889 14.0158V33.2452L116.594 33.2878Z" fill="#616AE8"/>
<path d="M71.417 39.8119C72.5512 39.6761 73.7006 39.8454 74.7499 40.3029C75.7993 40.7604 76.7116 41.49 77.3954 42.4185L78.4058 41.5781C77.1287 39.1709 73.494 37.9173 70.2802 38.6438C68.6245 39.0334 67.1426 39.9689 66.066 41.3038C64.9895 42.6387 64.379 44.2979 64.3299 46.0223C64.2472 47.6965 64.7035 49.3526 65.6302 50.7403C66.5569 52.1279 67.9034 53.1718 69.4662 53.7141C72.5817 54.7396 76.7919 53.5004 78.3917 51.0219L77.4094 50.2527C76.1651 51.6283 74.4383 52.4528 72.6009 52.5488C70.7635 52.6447 68.9624 52.0042 67.5856 50.7655C66.4788 49.5701 65.8407 48.0052 65.7916 46.3655C65.7425 44.7258 66.2857 43.1244 67.319 41.863C68.3823 40.6807 69.8455 39.9484 71.417 39.8119Z" fill="#616AE8"/>
<path d="M86.6606 42.4474C85.9001 42.381 85.1341 42.4678 84.4067 42.7028C83.6793 42.9378 83.0047 43.3164 82.4219 43.8167C81.839 44.317 81.3592 44.9292 81.0101 45.6182C80.661 46.3072 80.4494 47.0594 80.3875 47.8317C80.3516 48.5799 80.4612 49.3279 80.7101 50.0331C80.959 50.7383 81.3423 51.3869 81.8381 51.9418C82.334 52.4966 82.9327 52.947 83.6 53.2671C84.2673 53.5871 84.9902 53.7705 85.7274 53.807C86.4646 53.8434 87.2016 53.7322 87.8964 53.4795C88.5912 53.2269 89.2302 52.8378 89.7769 52.3346C90.3236 51.8313 90.7672 51.2237 91.0825 50.5464C91.3979 49.8691 91.5787 49.1354 91.6146 48.3872C91.6556 46.9514 91.1725 45.5509 90.2581 44.4546C89.3438 43.3583 88.0626 42.6434 86.6606 42.4474ZM86.2396 52.6747C85.3773 52.6773 84.5334 52.4212 83.8138 51.9388C83.0942 51.4565 82.5309 50.7692 82.1946 49.9632C81.8584 49.1572 81.7641 48.2684 81.9237 47.4083C82.0832 46.5481 82.4895 45.7549 83.0915 45.1282C83.6935 44.5015 84.4645 44.0691 85.3076 43.8853C86.1508 43.7016 87.0286 43.7747 87.831 44.0954C88.6334 44.4161 89.3246 44.97 89.8179 45.6879C90.3113 46.4058 90.5848 47.2557 90.6042 48.1307C90.6174 48.7188 90.5139 49.3035 90.3 49.8502C90.086 50.3969 89.7659 50.8944 89.3587 51.313C88.9515 51.7316 88.4656 52.0628 87.9297 52.2869C87.3939 52.511 86.8192 52.6235 86.2396 52.6176V52.6747Z" fill="#616AE8"/>
<path d="M100.696 42.4469C100.077 42.2588 99.4224 42.2239 98.7875 42.3454C98.1526 42.4668 97.5558 42.741 97.0468 43.1448C96.5416 43.5437 96.0784 44.0137 95.503 44.5692V42.7175H94.0996V53.5856H95.3627C95.3627 53.1868 95.3627 52.8166 95.3627 52.4605C95.3627 50.623 95.3627 48.7856 95.5592 46.9623C95.625 46.1927 95.9336 45.465 96.4392 44.8876C96.9449 44.3102 97.6206 43.9139 98.366 43.7574C98.7767 43.616 99.214 43.5729 99.6438 43.6319C100.074 43.6908 100.484 43.8501 100.843 44.0972C101.202 44.3442 101.5 44.6723 101.713 45.0558C101.926 45.4392 102.048 45.8674 102.071 46.307C102.071 46.9764 102.071 47.7314 102.141 48.3297V53.5716H103.334C103.334 51.0076 103.432 48.5006 103.334 46.0079C103.375 45.1947 103.133 44.3928 102.651 43.7419C102.169 43.0911 101.477 42.6327 100.696 42.4469Z" fill="#616AE8"/>
<path d="M122.11 43.5151C122.11 45.3953 122.11 47.2898 122.026 49.2127C122.006 49.8603 121.838 50.4944 121.535 51.0645C121.155 51.6914 120.581 52.1718 119.902 52.4298C119.224 52.6878 118.479 52.7087 117.788 52.4889C117.116 52.347 116.513 51.9724 116.083 51.4293C115.653 50.8863 115.422 50.2085 115.43 49.5118C115.318 47.5604 115.346 45.5947 115.318 43.6433V42.7744H114.125C114.091 42.8261 114.067 42.8842 114.055 42.9453C114.055 44.7116 114.055 46.4778 114.055 48.2441C114.08 49.01 114.169 49.7725 114.321 50.5233C114.484 51.5774 115.029 52.5318 115.85 53.1987C116.67 53.8656 117.707 54.1966 118.756 54.1269C119.82 54.2357 120.883 53.9185 121.72 53.2425C122.556 52.5666 123.099 51.5856 123.233 50.509C123.556 47.9736 123.527 45.3811 123.64 42.7887H122.124L122.11 43.5151Z" fill="#616AE8"/>
<path d="M132.941 38.6016H131.636V42.6611H129.77V43.8291H131.664V53.6575H132.983V43.8149H135.074V42.6041H132.941V38.6016Z" fill="#616AE8"/>
<path d="M110.994 48.4581C110.446 48.0023 109.801 47.6748 109.211 47.276C108.721 46.998 108.252 46.6837 107.808 46.3358C107.515 46.1399 107.305 45.8396 107.219 45.4942C107.133 45.1488 107.178 44.7834 107.345 44.4699C107.514 44.1305 107.802 43.8667 108.152 43.7299C108.502 43.5931 108.889 43.5929 109.239 43.7292C109.884 43.9944 110.512 44.2988 111.12 44.6408C111.274 44.4557 111.513 44.185 111.807 43.8716C111.416 43.3505 110.896 42.944 110.299 42.6938C109.702 42.4435 109.051 42.3585 108.411 42.4472C107.922 42.5718 107.475 42.8278 107.117 43.1885C106.759 43.5491 106.503 44.001 106.377 44.4965C106.251 44.9921 106.258 45.5131 106.399 46.0047C106.54 46.4963 106.808 46.9404 107.176 47.2902C107.766 47.7318 108.397 48.1164 109.015 48.5294C109.394 48.7716 109.801 48.9853 110.166 49.2559C110.463 49.4598 110.688 49.7556 110.807 50.0994C110.925 50.4432 110.932 50.8167 110.825 51.1645C110.726 51.5169 110.526 51.8318 110.252 52.0699C109.977 52.308 109.64 52.459 109.281 52.5036C108.767 52.5926 108.239 52.5344 107.755 52.3356C107.272 52.1368 106.853 51.8053 106.545 51.3782L105.717 52.2899C106.045 52.7169 106.454 53.0737 106.919 53.3401C107.383 53.6065 107.895 53.7773 108.425 53.8424C109.097 53.9815 109.796 53.882 110.404 53.5604C111.012 53.2388 111.493 52.7148 111.765 52.0762C112.082 51.4787 112.179 50.786 112.037 50.1227C111.896 49.4594 111.526 48.869 110.994 48.4581Z" fill="#616AE8"/>
<path d="M127.568 38.5166H126.375V53.658H127.568V38.5166Z" fill="#616AE8"/>
<path d="M136.943 42.6328V53.558H138.122V42.6756H137.645L136.943 42.6328Z" fill="#616AE8"/>
<path d="M137.576 38.1748C137.289 38.1784 137.014 38.2947 136.81 38.4993C136.606 38.7038 136.488 38.9806 136.481 39.2716C136.477 39.4162 136.502 39.56 136.554 39.6947C136.606 39.8293 136.684 39.9521 136.783 40.0556C136.883 40.1592 137.001 40.2415 137.133 40.2977C137.264 40.3538 137.405 40.3827 137.547 40.3827C137.815 40.3518 138.061 40.2222 138.24 40.0186C138.419 39.815 138.518 39.5517 138.518 39.2788C138.518 39.0058 138.419 38.7425 138.24 38.5389C138.061 38.3353 137.815 38.2057 137.547 38.1748H137.576Z" fill="#616AE8"/>
</g>
</g>
<defs>
<clipPath id="clip0_8_37">
<rect width="164" height="59" fill="white"/>
</clipPath>
</defs>
</svg>
