<svg width="37" height="37" viewBox="0 0 37 37" fill="none" xmlns="http://www.w3.org/2000/svg">
<path d="M18.5 3.08333C10.0209 3.08333 3.08337 10.0208 3.08337 18.5C3.08337 26.9792 10.0209 33.9167 18.5 33.9167C26.9792 33.9167 33.9167 26.9792 33.9167 18.5C33.9167 10.0208 26.9792 3.08333 18.5 3.08333ZM18.5 30.8333C11.7013 30.8333 6.16671 25.2987 6.16671 18.5C6.16671 11.7012 11.7013 6.16666 18.5 6.16666C25.2988 6.16666 30.8334 11.7012 30.8334 18.5C30.8334 25.2987 25.2988 30.8333 18.5 30.8333ZM25.5763 11.6858L15.4167 21.8454L11.4238 17.8679L9.25004 20.0417L15.4167 26.2083L27.75 13.875L25.5763 11.6858Z" fill="#6BC973"/>
</svg>
