<svg width="37" height="37" viewBox="0 0 37 37" fill="none" xmlns="http://www.w3.org/2000/svg">
<path d="M25.7266 4.625C22.742 4.625 20.1289 5.90844 18.5 8.07785C16.8711 5.90844 14.258 4.625 11.2734 4.625C8.89767 4.62768 6.61998 5.57263 4.94006 7.25256C3.26013 8.93248 2.31518 11.2102 2.3125 13.5859C2.3125 23.7031 17.3134 31.8923 17.9522 32.2305C18.1206 32.321 18.3088 32.3685 18.5 32.3685C18.6912 32.3685 18.8794 32.321 19.0478 32.2305C19.6866 31.8923 34.6875 23.7031 34.6875 13.5859C34.6848 11.2102 33.7399 8.93248 32.0599 7.25256C30.38 5.57263 28.1023 4.62768 25.7266 4.625ZM18.5 29.8891C15.8609 28.3512 4.625 21.3458 4.625 13.5859C4.62729 11.8234 5.32849 10.1336 6.57482 8.88732C7.82114 7.64099 9.51087 6.93979 11.2734 6.9375C14.0846 6.9375 16.4448 8.43484 17.4305 10.8398C17.5176 11.0519 17.6658 11.2333 17.8562 11.3609C18.0466 11.4886 18.2707 11.5568 18.5 11.5568C18.7293 11.5568 18.9534 11.4886 19.1438 11.3609C19.3342 11.2333 19.4824 11.0519 19.5695 10.8398C20.5552 8.43051 22.9154 6.9375 25.7266 6.9375C27.4891 6.93979 29.1789 7.64099 30.4252 8.88732C31.6715 10.1336 32.3727 11.8234 32.375 13.5859C32.375 21.3343 21.1362 28.3498 18.5 29.8891Z" fill="#DFAFAF"/>
</svg>
