<svg width="37" height="38" viewBox="0 0 37 38" fill="none" xmlns="http://www.w3.org/2000/svg">
<path d="M19.5703 8.43954H17.4364C17.2412 8.43954 17.0815 8.59861 17.0815 8.79303V20.9574C17.0815 21.0723 17.1347 21.1784 17.2279 21.2447L24.5614 26.5779C24.7211 26.6928 24.9429 26.6619 25.0583 26.5028L26.3271 24.7795C26.4469 24.616 26.4114 24.3951 26.2517 24.2847L19.9252 19.7291V8.79303C19.9252 8.59861 19.7655 8.43954 19.5703 8.43954ZM29.3217 11.7623L36.2781 13.4547C36.5 13.5077 36.7173 13.3398 36.7173 13.1144L36.7528 5.97838C36.7528 5.68233 36.4112 5.51442 36.1805 5.7L29.1886 11.1393C29.1358 11.18 29.0955 11.2348 29.0726 11.2972C29.0496 11.3597 29.0447 11.4274 29.0586 11.4925C29.0725 11.5575 29.1046 11.6174 29.1511 11.6651C29.1977 11.7129 29.2568 11.7466 29.3217 11.7623ZM36.7617 25.0667L34.2462 24.2051C34.1585 24.1752 34.0625 24.1806 33.9788 24.2202C33.8951 24.2599 33.8302 24.3306 33.7981 24.4172C33.7138 24.6426 33.6251 24.8635 33.5319 25.0844C32.7422 26.9447 31.6109 28.6193 30.1646 30.0554C28.7344 31.4842 27.0394 32.6232 25.1736 33.4091C23.2407 34.223 21.1631 34.6407 19.0646 34.6374C16.9439 34.6374 14.8898 34.2265 12.9555 33.4091C11.0897 32.6232 9.39471 31.4842 7.96448 30.0554C6.52262 28.6193 5.39131 26.9447 4.59718 25.0844C3.78449 23.1583 3.36812 21.0893 3.37271 19C3.37271 16.8879 3.78531 14.8377 4.60606 12.9112C5.39575 11.0509 6.52706 9.37628 7.97335 7.94024C9.40359 6.51135 11.0986 5.37239 12.9644 4.58652C14.8898 3.76907 16.9484 3.35814 19.069 3.35814C21.1896 3.35814 23.2437 3.76907 25.178 4.58652C27.0438 5.37239 28.7388 6.51135 30.1691 7.94024C30.6216 8.39535 31.0475 8.86814 31.4379 9.36745L34.0909 7.29954C30.5994 2.85442 25.1647 -0.00441349 19.0601 5.11471e-06C8.43031 0.00442372 -0.10549 8.60303 0.000985397 19.1944C0.107461 29.6002 8.60333 38 19.069 38C27.2987 38 34.3083 32.8037 36.9791 25.5263C37.0456 25.3407 36.948 25.133 36.7617 25.0667Z" fill="#AE70D5"/>
</svg>
